Coordinates
version=1
nRows=17
nColumns=40
inDegrees=yes

Units are S.I. units (second, meters, Newtons, ...)
If the header above contains a line with 'inDegrees', this indicates whether rotational values are in degrees (yes) or radians (no).

endheader
time	pelvis_tilt	pelvis_list	pelvis_rotation	pelvis_tx	pelvis_ty	pelvis_tz	hip_flexion_r	hip_adduction_r	hip_rotation_r	knee_angle_r	knee_angle_r_beta	ankle_angle_r	subtalar_angle_r	mtp_angle_r	hip_flexion_l	hip_adduction_l	hip_rotation_l	knee_angle_l	knee_angle_l_beta	ankle_angle_l	subtalar_angle_l	mtp_angle_l	lumbar_extension	lumbar_bending	lumbar_rotation	arm_flex_r	arm_add_r	arm_rot_r	elbow_flex_r	pro_sup_r	wrist_flex_r	wrist_dev_r	arm_flex_l	arm_add_l	arm_rot_l	elbow_flex_l	pro_sup_l	wrist_flex_l	wrist_dev_l
      6.70000000	     19.62176216	      3.09007704	   -178.51629122	      0.37264389	      0.83096602	     -0.59218834	     45.95220749	    -13.37052593	    -14.27972497	     23.14044502	      0.40387696	     -4.95117287	      0.00000000	      0.00000000	     49.87088275	    -16.49208224	     -5.68611191	     27.43340026	      0.47880316	     -2.73676281	      0.00000000	      0.00000000	    -52.26081454	      1.28030759	      2.27068516	     52.03457667	    -22.80268694	     53.85013276	     25.69273046	     68.86070702	      0.00000000	      0.00000000	     56.79299417	     -7.58432817	     14.09274318	     16.19545003	     39.41580172	      0.00000000	      0.00000000
      6.70500000	     19.89824313	      3.45559521	   -178.21720620	      0.37288031	      0.83056850	     -0.59177829	     46.07944126	    -13.26711920	    -14.60173388	     23.00307819	      0.40147945	     -5.12810815	      0.00000000	      0.00000000	     50.41363750	    -16.44815055	     -4.88674788	     27.49155391	      0.47981813	     -2.94228333	      0.00000000	      0.00000000	    -51.67804679	      1.80129689	      2.40453468	     51.50201954	    -22.54187615	     52.35839232	     25.45803941	     67.97752811	      0.00000000	      0.00000000	     56.45583337	     -7.50229848	     14.01561731	     16.35927474	     39.54330200	      0.00000000	      0.00000000
      6.71000000	     19.69055735	      3.11021505	   -178.32258332	      0.37249290	      0.83117556	     -0.59241367	     45.99811693	    -13.45278113	    -14.32274493	     23.18485561	      0.40465207	     -5.14237930	      0.00000000	      0.00000000	     49.86585062	    -16.32006886	     -5.43984304	     27.17455475	      0.47428545	     -2.94345261	      0.00000000	      0.00000000	    -51.63714093	      1.37980355	      2.08173297	     50.70108815	    -21.88510802	     49.77712978	     25.55673308	     65.41565430	      0.00000000	      0.00000000	     56.39624245	     -7.75016628	     14.32684933	     16.12497877	     39.93973677	      0.00000000	      0.00000000
      6.71500000	     19.57274104	      2.96930373	   -178.39518225	      0.37236677	      0.83155457	     -0.59277969	     45.80688002	    -13.35563839	    -13.75630606	     22.94426706	      0.40045300	     -4.80001329	      0.00000000	      0.00000000	     49.54249329	    -16.26119680	     -5.60822322	     26.92794640	      0.46998133	     -2.95686619	      0.00000000	      0.00000000	    -51.49095018	      1.17377576	      2.19895649	     50.32610586	    -22.17206633	     49.67610431	     25.94414556	     65.31997786	      0.00000000	      0.00000000	     56.41880710	     -7.55484538	     14.75180021	     15.74994403	     40.16181297	      0.00000000	      0.00000000
      6.72000000	     19.48266458	      2.91746277	   -178.29754854	      0.37218580	      0.83174867	     -0.59271608	     45.71837919	    -13.43425820	    -13.67994357	     22.99538270	      0.40134514	     -4.82468374	      0.00000000	      0.00000000	     49.41711718	    -16.12265169	     -5.52863939	     26.87613809	      0.46907710	     -2.97053948	      0.00000000	      0.00000000	    -51.28504742	      1.25227788	      1.97299187	     51.09394418	    -22.64663735	     53.80654212	     25.65515305	     68.70819798	      0.00000000	      0.00000000	     55.93315678	     -7.86329427	     15.07660929	     16.30217708	     40.41639833	      0.00000000	      0.00000000
      6.72500000	     19.32610006	      2.89291613	   -178.29082854	      0.37177358	      0.83204887	     -0.59302944	     45.57022720	    -13.45659314	    -13.74178337	     23.09081728	      0.40301079	     -4.76256811	      0.00000000	      0.00000000	     49.19400771	    -16.13109484	     -5.56814549	     26.84031290	      0.46845183	     -2.88881539	      0.00000000	      0.00000000	    -51.15294399	      1.18384445	      2.00423276	     50.31368081	    -22.27028500	     51.55510785	     25.65656545	     66.82111214	      0.00000000	      0.00000000	     55.82761000	     -7.82478361	     15.31739058	     15.99113660	     40.63371628	      0.00000000	      0.00000000
      6.73000000	     19.70933996	      3.26919379	   -177.93152970	      0.37202870	      0.83131645	     -0.59245153	     45.76663092	    -13.37175193	    -13.95326650	     22.84281394	      0.39868231	     -5.01991110	      0.00000000	      0.00000000	     49.85443694	    -15.96463976	     -4.37515933	     26.84217615	      0.46848435	     -3.20604112	      0.00000000	      0.00000000	    -50.41222302	      1.75925197	      2.01495596	     49.30036188	    -21.59652557	     48.10130121	     25.54428365	     63.67611374	      0.00000000	      0.00000000	     55.09141436	     -8.05536779	     15.40242179	     16.84629423	     40.97636962	      0.00000000	      0.00000000
      6.73500000	     18.78087948	      2.81914708	   -178.23702035	      0.37077521	      0.83300037	     -0.59336412	     45.00635146	    -13.52708788	    -13.85175866	     23.27514728	      0.40622795	     -4.50640410	      0.00000000	      0.00000000	     48.50017620	    -16.10814729	     -5.71810830	     26.81226580	      0.46796232	     -2.76336883	      0.00000000	      0.00000000	    -51.12813171	      1.09195633	      2.01949965	     49.14187738	    -21.85760723	     48.61906428	     25.89250423	     64.29327109	      0.00000000	      0.00000000	     55.59129598	     -7.76711367	     15.69604124	     15.70838702	     40.92650796	      0.00000000	      0.00000000
      6.74000000	     18.54903359	      2.77849401	   -178.24295021	      0.37028218	      0.83339045	     -0.59359497	     44.78622229	    -13.54506562	    -13.85172102	     23.39838726	      0.40837890	     -4.41138574	      0.00000000	      0.00000000	     48.21441075	    -16.12186857	     -5.80004107	     26.84886470	      0.46860109	     -2.66397194	      0.00000000	      0.00000000	    -51.05962404	      1.02655065	      2.02266061	     48.61742887	    -21.58651858	     47.29461086	     25.88478836	     62.95637281	      0.00000000	      0.00000000	     55.36459667	     -7.79590518	     15.84824798	     15.74937457	     41.14766768	      0.00000000	      0.00000000
      6.74500000	     18.28914644	      2.71774065	   -178.26775658	      0.36981909	      0.83382359	     -0.59385367	     44.53523457	    -13.55758342	    -13.78759760	     23.48518956	      0.40989388	     -4.27633269	      0.00000000	      0.00000000	     47.87376539	    -16.12829575	     -5.88513066	     26.85365336	      0.46868467	     -2.59758469	      0.00000000	      0.00000000	    -51.02303222	      0.92694058	      1.99221824	     48.15174173	    -21.37019902	     46.25545282	     25.99003795	     61.95520652	      0.00000000	      0.00000000	     55.14395295	     -7.87029666	     15.99217877	     15.77815941	     41.33846928	      0.00000000	      0.00000000
      6.75000000	     18.07220775	      2.69729523	   -178.21739927	      0.36941146	      0.83414190	     -0.59401829	     44.29099066	    -13.57802851	    -13.76377734	     23.53756289	      0.41080797	     -4.18703447	      0.00000000	      0.00000000	     47.64868849	    -16.10896506	     -5.86430582	     26.92001716	      0.46984293	     -2.60333294	      0.00000000	      0.00000000	    -50.91478578	      1.00984878	      1.72203069	     49.62241720	    -22.36650264	     53.55943086	     25.62833801	     68.34428839	      0.00000000	      0.00000000	     54.65758104	     -8.15475474	     15.54260227	     16.16364406	     41.33221087	      0.00000000	      0.00000000
      6.75500000	     17.89037819	      2.66468582	   -178.21387508	      0.36896020	      0.83444766	     -0.59428302	     44.13346108	    -13.59251386	    -13.76794816	     23.67840941	      0.41326621	     -4.19622524	      0.00000000	      0.00000000	     47.40949362	    -16.11259149	     -5.87365675	     26.93870777	      0.47016915	     -2.49660047	      0.00000000	      0.00000000	    -50.78634638	      0.93565316	      1.74947286	     48.65628237	    -21.79181665	     50.34110411	     25.61072834	     65.52357261	      0.00000000	      0.00000000	     54.49248387	     -8.12628830	     15.68705340	     16.02354257	     41.48621362	      0.00000000	      0.00000000
      6.76000000	     17.53082652	      2.65545097	   -178.14923234	      0.36838451	      0.83512961	     -0.59443727	     43.68875210	    -13.60527274	    -13.85242205	     23.66958929	      0.41311227	     -4.00782564	      0.00000000	      0.00000000	     46.96099134	    -16.10213214	     -5.89408892	     26.88298710	      0.46919664	     -2.48822046	      0.00000000	      0.00000000	    -50.84803452	      0.97500022	      1.68256571	     49.10533930	    -22.35374675	     53.40504815	     25.71106465	     68.82676043	      0.00000000	      0.00000000	     54.28016593	     -8.16078533	     15.57550478	     16.18485403	     41.46013701	      0.00000000	      0.00000000
      6.76500000	     17.24921775	      2.59875035	   -178.17071814	      0.36789982	      0.83574863	     -0.59473409	     43.36414017	    -13.58829722	    -13.78389430	     23.65389016	      0.41283826	     -4.01448243	      0.00000000	      0.00000000	     46.54305000	    -16.11395235	     -5.99555791	     26.79349032	      0.46763462	     -2.45460522	      0.00000000	      0.00000000	    -50.83972496	      0.87553384	      1.70742786	     48.48201153	    -22.09626877	     51.73131898	     25.76445264	     67.70144948	      0.00000000	      0.00000000	     54.12932622	     -8.15699438	     15.73847103	     16.10262115	     41.55547772	      0.00000000	      0.00000000
      6.77000000	     17.10475511	      2.41479132	   -178.21175759	      0.36744162	      0.83608402	     -0.59515771	     43.27090653	    -13.67361761	    -13.54062626	     23.77754405	      0.41499643	     -3.85805791	      0.00000000	      0.00000000	     46.22863541	    -16.02945343	     -6.20159422	     26.69645616	      0.46594106	     -2.38995011	      0.00000000	      0.00000000	    -50.68055338	      0.65807709	      1.57420396	     47.85617186	    -21.65232808	     50.01876189	     25.62133683	     66.30873583	      0.00000000	      0.00000000	     53.98996210	     -8.22810251	     15.88188110	     15.76897578	     41.63495493	      0.00000000	      0.00000000
      6.77500000	     16.82199974	      2.49879806	   -178.10235469	      0.36700880	      0.83674155	     -0.59525611	     42.83789627	    -13.62264916	    -13.68626508	     23.66212156	      0.41298193	     -3.72859156	      0.00000000	      0.00000000	     45.89250023	    -16.04490154	     -6.06748561	     26.60373600	      0.46432279	     -2.44455374	      0.00000000	      0.00000000	    -50.65300592	      0.81136921	      1.52608052	     48.32588701	    -22.20495873	     53.17009264	     25.69672136	     69.26139738	      0.00000000	      0.00000000	     53.62151259	     -8.44084539	     16.34776294	     16.22767511	     41.69551290	      0.00000000	      0.00000000
      6.78000000	     16.62802533	      2.40288969	   -178.10737848	      0.36651388	      0.83725651	     -0.59562303	     42.60644302	    -13.64625964	    -13.59377275	     23.65346395	      0.41283083	     -3.68578336	      0.00000000	      0.00000000	     45.54951138	    -16.00751726	     -6.21080011	     26.49077856	      0.46235131	     -2.43018038	      0.00000000	      0.00000000	    -50.54770772	      0.68503483	      1.51502746	     47.63800641	    -21.92248120	     51.32779058	     25.80709643	     67.86028039	      0.00000000	      0.00000000	     53.50110912	     -8.38632337	     16.21524033	     16.05295525	     41.76825195	      0.00000000	      0.00000000
